<svg width="151" height="33" viewBox="0 0 151 33" fill="none" xmlns="http://www.w3.org/2000/svg">
<mask id="mask0_1874_1646" style="mask-type:luminance" maskUnits="userSpaceOnUse" x="0" y="0" width="151" height="33">
<path d="M150.5 0H0.5V32.4324H150.5V0Z" fill="white"/>
</mask>
<g mask="url(#mask0_1874_1646)">
<path d="M60.2484 22.3807L48.2279 3.1123H43.1836V28.8169H46.9761V9.79982L58.8895 28.8169H64.0066V3.1123H60.2499V22.3821L60.2484 22.3807Z" fill="#2E2F35"/>
<path d="M71.3758 3.1123H66.7617V6.70809H71.3758V3.1123Z" fill="#2E2F35"/>
<path d="M71.2693 9.25879H66.9395V28.8158H71.4821C71.3392 27.2333 71.2678 25.6523 71.2678 24.1415V9.25879H71.2693Z" fill="#2E2F35"/>
<path d="M102.524 15.5496C102.524 11.882 101.021 8.75586 96.8371 8.75586C93.9763 8.75586 91.6499 10.9487 90.5053 14.0045C90.1466 10.9128 88.5019 8.75586 84.9967 8.75586C82.1702 8.75586 79.9524 10.841 78.8436 13.7876V9.25844H74.5137V28.8155H78.8436V19.9711C78.8436 15.6199 80.7398 12.422 83.4949 12.422C85.3197 12.422 86.3556 13.6799 86.3556 16.1973V28.8155H90.6854V19.9711C90.6854 15.5855 92.6174 12.422 95.3367 12.422C97.1615 12.422 98.1975 13.6799 98.1975 16.1973V28.8155H102.74C102.561 27.2329 102.526 25.616 102.526 24.1412V15.5481L102.524 15.5496Z" fill="#2E2F35"/>
<path d="M105.031 28.8169H109.361V25.2585C110.612 27.704 112.867 29.3209 115.442 29.3209C120.415 29.3209 123.849 25.1508 123.849 19.0391C123.849 12.9275 120.522 8.75727 115.478 8.75727C112.902 8.75727 110.612 10.3757 109.361 12.9275V3.1123H105.031V28.8169ZM109.361 18.2479C109.361 15.0126 111.543 12.3157 114.333 12.3157C117.124 12.3157 119.235 15.0126 119.235 19.0376C119.235 23.0627 117.231 25.7596 114.333 25.7596C111.614 25.7596 109.361 23.1704 109.361 19.9725V18.2479Z" fill="#2E2F35"/>
<path d="M130.001 3.1123H125.672V28.8169H130.214C130.071 27.2344 130 25.6175 130 24.1427V3.1123H130.001Z" fill="#2E2F35"/>
<path d="M146.961 21.8423C146.28 24.0709 144.456 26.0842 141.845 26.0842C139.234 26.0842 137.051 23.7837 136.872 19.9008H150.287C150.287 13.2865 147.604 8.75586 141.736 8.75586C136.262 8.75586 132.434 13.1071 132.434 19.5059C132.434 25.9047 136.548 29.321 141.842 29.321C145.276 29.321 148.389 27.6667 150.499 24.1801L146.958 21.8438L146.961 21.8423ZM141.738 11.9553C144.206 11.9553 145.602 13.9327 145.887 16.8449H137.086C137.658 13.7532 139.376 11.9553 141.738 11.9553Z" fill="#2E2F35"/>
<path d="M32.7728 24.8816C32.7728 21.1751 30.1011 18.0834 26.5914 17.4492C26.0347 22.0292 22.4223 25.6594 17.8633 26.2188C18.1297 27.7265 18.8471 29.1145 19.9471 30.2199C21.3656 31.6454 23.2529 32.4306 25.2608 32.4306C29.3747 32.4306 32.7282 29.0891 32.7728 24.9653V24.8801V24.8816Z" fill="#866FF9"/>
<path d="M26.5899 14.9815C30.0996 14.3473 32.7713 11.257 32.7713 7.55057V7.46531C32.7267 3.34151 29.3733 0 25.2593 0C23.2529 0 21.3656 0.785271 19.9471 2.21072C18.8472 3.31609 18.1297 4.70415 17.8633 6.21187C22.4223 6.76978 26.0347 10.4 26.5914 14.98L26.5899 14.9815Z" fill="#866FF9"/>
<path d="M8.01206 0C3.89806 0 0.546141 3.34151 0.5 7.46531V7.55057C0.5 11.2585 3.1732 14.3503 6.6829 14.983C7.23957 10.403 10.8505 6.77427 15.408 6.21336C14.7784 2.68637 11.7018 0 8.01206 0Z" fill="#866FF9"/>
<path d="M26.5918 17.4493C26.1586 17.3715 25.7136 17.3311 25.2596 17.3311H17.7461V24.8817C17.7461 25.3349 17.7863 25.7821 17.8637 26.2189C22.4227 25.661 26.0351 22.0308 26.5918 17.4493Z" fill="#684CF6"/>
<path d="M26.5918 14.982C26.0351 10.402 22.4227 6.77179 17.8637 6.21387C17.7863 6.65063 17.7461 7.09786 17.7461 7.55107V15.1016H25.2596C25.7136 15.1016 26.1586 15.0613 26.5918 14.9835V14.982Z" fill="#684CF6"/>
<path d="M6.68359 14.9835C7.11523 15.0613 7.56027 15.1016 8.01275 15.1016H15.5263V7.55107C15.5263 7.09487 15.4861 6.64764 15.4087 6.21387C10.8511 6.77328 7.24026 10.4035 6.68359 14.9835Z" fill="#684CF6"/>
</g>
</svg>
